<svg xmlns="http://www.w3.org/2000/svg" style="display:none">
  <symbol id="mail" viewBox="0 0 12 12" >
<path d="M20 4H4c-1.1 0-1.99.9-1.99 2L2 18c0 1.1.9 2 2 2h16c1.1 0 2-.9 2-2V6c0-1.1-.9-2-2-2m0 4-8 5-8-5V6l8 5 8-5z" style="fill-rule:nonzero" transform="scale(.5)"/>
  </symbol>
  <symbol id="messenger" viewBox="0 0 12 12" >
<path d="M12 2C6.36 2 2 6.13 2 11.7c0 2.91 1.19 5.44 3.14 7.17.16.13.26.35.27.57l.05 1.78c.04.57.61.94 1.13.71l1.98-.87c.17-.06.36-.09.53-.06.9.27 1.9.4 2.9.4 5.64 0 10-4.13 10-9.7S17.64 2 12 2m6 7.46-2.93 4.67c-.47.73-1.47.92-2.17.37l-2.34-1.73a.6.6 0 0 0-.72 0l-3.16 2.4c-.42.33-.97-.17-.68-.63l2.93-4.67c.47-.73 1.47-.92 2.17-.4l2.34 1.76a.6.6 0 0 0 .72 0l3.16-2.4c.42-.33.97.17.68.63" style="fill-rule:nonzero" transform="scale(.5)"/>
  </symbol>
  <symbol id="tel" viewBox="0 0 12 12" >
<path d="M6.62 10.79c1.44 2.83 3.76 5.14 6.59 6.59l2.2-2.2c.27-.27.67-.36 1.02-.24 1.12.37 2.33.57 3.57.57.55 0 1 .45 1 1V20c0 .55-.45 1-1 1-9.39 0-17-7.61-17-17 0-.55.45-1 1-1h3.5c.55 0 1 .45 1 1 0 1.25.2 2.45.57 3.57.11.35.03.74-.25 1.02z" style="fill-rule:nonzero" transform="translate(-.667 -.667)scale(.55556)"/>
  </symbol>
  <symbol id="telegram" viewBox="0 0 12 12" >
<path d="M12 2C6.48 2 2 6.48 2 12s4.48 10 10 10 10-4.48 10-10S17.52 2 12 2m4.64 6.8c-.15 1.58-.8 5.42-1.13 7.19-.14.75-.42 1-.68 1.03-.58.05-1.02-.38-1.58-.75-.88-.58-1.38-.94-2.23-1.5-.99-.65-.35-1.01.22-1.59.15-.15 2.71-2.48 2.76-2.69a.2.2 0 0 0-.05-.18c-.06-.05-.14-.03-.21-.02-.09.02-1.49.95-4.22 2.79-.4.27-.76.41-1.08.4-.36-.01-1.04-.2-1.55-.37-.63-.2-1.12-.31-1.08-.66.02-.18.27-.36.74-.55 2.92-1.27 4.86-2.11 5.83-2.51 2.78-1.16 3.35-1.36 3.73-1.36.08 0 .27.02.39.12.1.08.13.19.14.27-.01.06.01.24 0 .38" style="fill-rule:nonzero" transform="scale(.5)"/>
  </symbol>
  <symbol id="viber" viewBox="0 0 12 12" >
<path d="M25.362 8.32c-.409-1.459-1.218-2.614-2.405-3.431-1.498-1.032-3.221-1.398-4.709-1.62-2.059-.307-3.924-.35-5.7-.133-1.666.204-2.92.53-4.065 1.056-2.243 1.03-3.589 2.698-4 4.956a31 31 0 0 0-.412 3.032c-.18 2.185-.017 4.119.499 5.911.502 1.747 1.38 2.996 2.684 3.816.333.209.757.36 1.169.506.206.073.404.145.577.221v3.53a.836.836 0 0 0 1.419.599l3.257-3.168c.142-.162.142-.162.288-.165a100 100 0 0 0 3.38-.126c1.369-.075 2.955-.207 4.449-.83 1.367-.571 2.365-1.477 2.964-2.692.625-1.268.997-2.642 1.136-4.199.244-2.738.07-5.114-.531-7.263m-5.671 10.42c-.327.535-.817.905-1.393 1.145-.421.176-.851.139-1.266-.037-3.484-1.474-6.215-3.798-8.021-7.137-.372-.688-.631-1.437-.928-2.164-.061-.15-.056-.325-.083-.488.026-1.175.927-1.836 1.837-2.036.348-.077.656.046.914.293a8 8 0 0 1 1.704 2.358c.186.389.102.733-.215 1.022q-.098.09-.205.169c-.723.544-.829.955-.444 1.774.656 1.393 1.745 2.328 3.154 2.908.371.153.721.077 1.005-.224.038-.04.081-.079.109-.125.556-.927 1.361-.835 2.105-.306.489.347.963.713 1.447 1.067.734.541.728 1.049.28 1.781m-4.18-9.597q-.282 0-.559.046a.572.572 0 1 1-.188-1.128 4.494 4.494 0 0 1 5.174 5.176.572.572 0 0 1-1.127-.189q.046-.274.046-.558a3.35 3.35 0 0 0-3.346-3.347M18 12.857a.571.571 0 0 1-1.142 0c0-.945-.769-1.714-1.714-1.714a.571.571 0 0 1 0-1.142A2.86 2.86 0 0 1 18 12.857m3.846.697a.57.57 0 0 1-.684.431.57.57 0 0 1-.431-.683 5.045 5.045 0 0 0-6.034-6.034.57.57 0 1 1-.252-1.114 6.188 6.188 0 0 1 7.401 7.4" style="fill-rule:nonzero" transform="matrix(.45456 0 0 .41668 -.818 -.25)"/>
  </symbol>
  <symbol id="whatsapp" viewBox="0 0 12 12" >
<path d="M12.04 2c-5.46 0-9.91 4.45-9.91 9.91 0 1.75.46 3.45 1.32 4.95L2.05 22l5.25-1.38c1.45.79 3.08 1.21 4.74 1.21 5.46 0 9.91-4.45 9.91-9.91 0-2.65-1.03-5.14-2.9-7.01A9.82 9.82 0 0 0 12.04 2m.01 1.67c2.2 0 4.26.86 5.82 2.42a8.23 8.23 0 0 1 2.41 5.83c0 4.54-3.7 8.23-8.24 8.23-1.48 0-2.93-.39-4.19-1.15l-.3-.17-3.12.82.83-3.04-.2-.32a8.2 8.2 0 0 1-1.26-4.38c.01-4.54 3.7-8.24 8.25-8.24M8.53 7.33c-.16 0-.43.06-.66.31-.22.25-.87.86-.87 2.07 0 1.22.89 2.39 1 2.56.14.17 1.76 2.67 4.25 3.73.59.27 1.05.42 1.41.53.59.19 1.13.16 1.56.1.48-.07 1.46-.6 1.67-1.18s.21-1.07.15-1.18c-.07-.1-.23-.16-.48-.27-.25-.14-1.47-.74-1.69-.82-.23-.08-.37-.12-.56.12-.16.25-.64.81-.78.97-.15.17-.29.19-.53.07-.26-.13-1.06-.39-2-1.23-.74-.66-1.23-1.47-1.38-1.72-.12-.24-.01-.39.11-.5.11-.11.27-.29.37-.44.13-.14.17-.25.25-.41.08-.17.04-.31-.02-.43-.06-.11-.56-1.35-.77-1.84-.2-.48-.4-.42-.56-.43-.14 0-.3-.01-.47-.01" style="fill-rule:nonzero" transform="scale(.5)"/>
  </symbol>
  <symbol id="zalo" viewBox="0 0 12 12" >
<path d="M3.585 1c-.22.14-.423.295-.6.467-1.665 1.602-1.79 5.08-.379 6.967l.003.006c.218.322.007.883-.321 1.209-.053.052-.032.082.045.09.467.051 1.049-.082 1.462-.284 2.017 1.115 5.31.92 6.875-.589l.047-.045A4 4 0 0 0 11 8.499v1.184C11 10.407 10.407 11 9.683 11H2.317A1.32 1.32 0 0 1 1 9.683V2.317C1 1.593 1.593 1 2.317 1zM2.94 4.806h1.376l-1.359 1.65a.37.37 0 0 0-.073.245v.105h1.87c.094 0 .17-.075.17-.167v-.222H3.48l1.275-1.57.071-.082.01-.01a.5.5 0 0 0 .088-.307v-.06H2.94zm4.363 1.86a.14.14 0 0 0 .142.14h.283V4.36h-.425zM6 6.425a.56.56 0 0 1-.567-.555c0-.307.254-.556.567-.556s.564.247.566.552v.007A.56.56 0 0 1 6 6.424m.566-1.318A.97.97 0 0 0 6 4.924a.954.954 0 0 0-.963.945c0 .521.431.944.963.944a.97.97 0 0 0 .566-.182v.008c0 .092.076.167.17.167h.227V4.977h-.397zM8.985 6.43a.57.57 0 0 1-.574-.562c0-.31.257-.563.574-.563s.573.252.573.563-.256.562-.573.562m0-1.518a.966.966 0 0 0-.975.956c0 .527.436.955.975.955a.966.966 0 0 0 .975-.955.966.966 0 0 0-.975-.956"/>
  </symbol>
</svg>
