<svg xmlns="http://www.w3.org/2000/svg" style="display:none">
  <symbol id="mail" viewBox="0 0 12 12" viewBox="0 0 12 12" fill-rule="evenodd" stroke-linejoin="round" stroke-miterlimit="2">
<path fill="currentColor" d="M10 2H2a1 1 0 0 0-.995 1L1 9c0 .55.45 1 1 1h8c.55 0 1-.45 1-1V3c0-.55-.45-1-1-1m0 2L6 6.5 2 4V3l4 2.5L10 3z" fill-rule="nonzero"/>
  </symbol>
  <symbol id="messenger" viewBox="0 0 12 12" viewBox="0 0 12 12" fill-rule="evenodd" stroke-linejoin="round" stroke-miterlimit="2">
<path fill="currentColor" d="M6 1C3.18 1 1 3.065 1 5.85c0 1.455.595 2.72 1.57 3.585.08.065.13.175.135.285l.025.89c.02.285.305.47.565.355l.99-.435a.54.54 0 0 1 .265-.03c.45.135.95.2 1.45.2 2.82 0 5-2.065 5-4.85S8.82 1 6 1m3 3.73L7.535 7.065c-.235.365-.735.46-1.085.185l-1.17-.865a.3.3 0 0 0-.36 0l-1.58 1.2C3.13 7.75 2.855 7.5 3 7.27l1.465-2.335a.76.76 0 0 1 1.085-.2l1.17.88a.3.3 0 0 0 .36 0l1.58-1.2c.21-.165.485.085.34.315" fill-rule="nonzero"/>
  </symbol>
  <symbol id="tel" viewBox="0 0 12 12" viewBox="0 0 12 12" fill-rule="evenodd" stroke-linejoin="round" stroke-miterlimit="2">
<path fill="currentColor" d="M3.011 5.327C3.811 6.9 5.1 8.183 6.672 8.989l1.222-1.222c.15-.15.372-.2.567-.133.622.206 1.294.317 1.983.317.306 0 .556.25.556.556v1.939c0 .306-.25.556-.556.556C5.227 11 1 6.772 1 1.555 1 1.25 1.25 1 1.555 1H3.5c.306 0 .556.25.556.556a6.31 6.31 0 0 0 .317 1.983c.061.194.017.411-.139.567z" fill-rule="nonzero"/>
  </symbol>
  <symbol id="telegram" viewBox="0 0 12 12" viewBox="0 0 12 12" fill-rule="evenodd" stroke-linejoin="round" stroke-miterlimit="2">
<path fill="currentColor" d="M6 1C3.24 1 1 3.24 1 6s2.24 5 5 5 5-2.24 5-5-2.24-5-5-5m2.32 3.4c-.075.79-.4 2.71-.565 3.595-.07.375-.21.5-.34.515-.29.025-.51-.19-.79-.375l-1.115-.75c-.495-.325-.175-.505.11-.795L7 5.245a.1.1 0 0 0-.025-.09c-.03-.025-.07-.015-.105-.01-.045.01-.745.475-2.11 1.395-.2.135-.38.205-.54.2-.18-.005-.52-.1-.775-.185-.315-.1-.56-.155-.54-.33.01-.09.135-.18.37-.275L6.19 4.695l1.865-.68c.04 0 .135.01.195.06.05.04.065.095.07.135-.005.03.005.12 0 .19" fill-rule="nonzero"/>
  </symbol>
  <symbol id="viber" viewBox="0 0 12 12" viewBox="0 0 12 12" fill-rule="evenodd" stroke-linejoin="round" stroke-miterlimit="2">
<path fill="currentColor" d="M10.711 3.217c-.186-.608-.554-1.089-1.093-1.43-.681-.43-1.464-.583-2.141-.675-.936-.128-1.784-.146-2.591-.055-.757.085-1.327.221-1.848.44-1.02.429-1.631 1.124-1.818 2.065-.085.418-.148.84-.187 1.263-.082.91-.008 1.716.227 2.463.228.728.627 1.248 1.22 1.59.151.087.344.15.531.211l.262.092v1.471c0 .14.092.266.232.321s.303.026.413-.071l1.481-1.32c.065-.068.065-.068.131-.069l1.536-.053c.622-.031 1.343-.086 2.022-.346.621-.238 1.075-.615 1.347-1.122.284-.528.453-1.101.516-1.75.111-1.141.032-2.131-.241-3.026M8.133 7.559c-.149.223-.371.377-.633.477a.78.78 0 0 1-.575-.015C5.34 7.406 4.099 6.438 3.278 5.046c-.169-.287-.287-.599-.422-.902-.028-.063-.025-.135-.038-.203.012-.49.421-.765.835-.848a.47.47 0 0 1 .415.122 3.36 3.36 0 0 1 .775.983c.085.162.046.305-.098.426q-.045.038-.093.07c-.329.227-.377.398-.202.739.298.58.793.97 1.434 1.212a.41.41 0 0 0 .457-.093c.017-.017.037-.033.05-.052.253-.386.619-.348.957-.128l.658.445c.334.225.331.437.127.742m-1.9-3.999q-.128 0-.254.019c-.093.017-.188-.014-.249-.081s-.077-.158-.043-.239.113-.139.207-.15c.651-.1 1.315.095 1.782.523s.679 1.037.57 1.634c-.029.124-.16.206-.297.185s-.232-.137-.215-.263q.021-.114.021-.233c-.001-.77-.681-1.394-1.521-1.395m1.131 1.548c0 .131-.116.238-.26.238s-.26-.107-.26-.238c0-.394-.35-.714-.779-.714-.143 0-.26-.107-.26-.238s.116-.238.26-.238c.717.001 1.297.533 1.298 1.19m1.748.29a.24.24 0 0 1-.115.149.28.28 0 0 1-.196.031.26.26 0 0 1-.162-.105.22.22 0 0 1-.033-.18c.174-.704-.058-1.44-.615-1.95s-1.36-.723-2.128-.564c-.14.029-.279-.051-.31-.18s.056-.256.196-.285c.942-.195 1.927.066 2.609.692s.968 1.529.755 2.392" fill-rule="nonzero"/></svg>
  </symbol>
  <symbol id="whatsapp" viewBox="0 0 12 12" viewBox="0 0 12 12" fill-rule="evenodd" stroke-linejoin="round" stroke-miterlimit="2">
<path fill="currentColor" d="M6.02 1C3.29 1 1.065 3.225 1.065 5.955a4.97 4.97 0 0 0 .66 2.475l-.7 2.57 2.625-.69c.725.395 1.54.605 2.37.605 2.73 0 4.955-2.225 4.955-4.955 0-1.325-.515-2.57-1.45-3.505A4.91 4.91 0 0 0 6.02 1m.005.835c1.1 0 2.13.43 2.91 1.21.773.773 1.206 1.822 1.205 2.915 0 2.27-1.85 4.115-4.12 4.115A4.05 4.05 0 0 1 3.925 9.5l-.15-.085-1.56.41.415-1.52-.1-.16a4.1 4.1 0 0 1-.63-2.19c.005-2.27 1.85-4.12 4.125-4.12m-1.76 1.83c-.08 0-.215.03-.33.155-.11.125-.435.43-.435 1.035 0 .61.445 1.195.5 1.28.07.085.88 1.335 2.125 1.865a5.4 5.4 0 0 0 .705.265c.295.095.565.08.78.05.24-.035.73-.3.835-.59s.105-.535.075-.59-.115-.08-.24-.135c-.125-.07-.735-.37-.845-.41-.115-.04-.185-.06-.28.06-.08.125-.32.405-.39.485-.075.085-.145.095-.265.035-.13-.065-.53-.195-1-.615-.37-.33-.615-.735-.69-.86-.06-.12-.005-.195.055-.25a1.65 1.65 0 0 0 .185-.22c.065-.07.085-.125.125-.205s.02-.155-.01-.215-.28-.675-.385-.92-.2-.21-.28-.215c-.07 0-.15-.005-.235-.005" fill-rule="nonzero"/>
  </symbol>
  <symbol id="zalo" viewBox="0 0 12 12" viewBox="0 0 12 12" fill-rule="evenodd" stroke-linejoin="round" stroke-miterlimit="2">
<path fill="currentColor" d="M3.585 1c-.22.14-.423.295-.6.467-1.665 1.602-1.79 5.08-.379 6.967l.003.006c.218.322.007.883-.321 1.209-.053.052-.032.082.045.09.467.051 1.049-.082 1.462-.284 2.017 1.115 5.31.92 6.875-.589l.047-.045A4 4 0 0 0 11 8.499v1.184C11 10.407 10.407 11 9.683 11H2.317A1.32 1.32 0 0 1 1 9.683V2.317C1 1.593 1.593 1 2.317 1zM2.94 4.806h1.376l-1.359 1.65a.37.37 0 0 0-.073.245v.105h1.87c.094 0 .17-.075.17-.167v-.222H3.48l1.275-1.57.071-.082.01-.01a.5.5 0 0 0 .088-.307v-.06H2.94zm4.363 1.86a.14.14 0 0 0 .142.14h.283V4.36h-.425zM6 6.425a.56.56 0 0 1-.567-.555c0-.307.254-.556.567-.556s.564.247.566.552v.007A.56.56 0 0 1 6 6.424m.566-1.318A.97.97 0 0 0 6 4.924a.954.954 0 0 0-.963.945c0 .521.431.944.963.944a.97.97 0 0 0 .566-.182v.008c0 .092.076.167.17.167h.227V4.977h-.397zM8.985 6.43a.57.57 0 0 1-.574-.562c0-.31.257-.563.574-.563s.573.252.573.563-.256.562-.573.562m0-1.518a.966.966 0 0 0-.975.956c0 .527.436.955.975.955a.966.966 0 0 0 .975-.955.966.966 0 0 0-.975-.956"/>
  </symbol>
</svg>
