<svg xmlns="http://www.w3.org/2000/svg" viewBox="0 0 12 12" fill-rule="evenodd" stroke-linejoin="round" stroke-miterlimit="2" xmlns:v="https://vecta.io/nano"><path d="M6 1C3.18 1 1 3.065 1 5.85c0 1.455.595 2.72 1.57 3.585.08.065.13.175.135.285l.025.89c.02.285.305.47.565.355l.99-.435a.54.54 0 0 1 .265-.03c.45.135.95.2 1.45.2 2.82 0 5-2.065 5-4.85S8.82 1 6 1m3 3.73L7.535 7.065c-.235.365-.735.46-1.085.185l-1.17-.865a.3.3 0 0 0-.36 0l-1.58 1.2C3.13 7.75 2.855 7.5 3 7.27l1.465-2.335a.76.76 0 0 1 1.085-.2l1.17.88a.3.3 0 0 0 .36 0l1.58-1.2c.21-.165.485.085.34.315" fill-rule="nonzero"/></svg>