<svg xmlns="http://www.w3.org/2000/svg" viewBox="0 0 12 12" fill-rule="evenodd" stroke-linejoin="round" stroke-miterlimit="2" xmlns:v="https://vecta.io/nano"><path d="M6 1C3.24 1 1 3.24 1 6s2.24 5 5 5 5-2.24 5-5-2.24-5-5-5m2.32 3.4c-.075.79-.4 2.71-.565 3.595-.07.375-.21.5-.34.515-.29.025-.51-.19-.79-.375l-1.115-.75c-.495-.325-.175-.505.11-.795L7 5.245a.1.1 0 0 0-.025-.09c-.03-.025-.07-.015-.105-.01-.045.01-.745.475-2.11 1.395-.2.135-.38.205-.54.2-.18-.005-.52-.1-.775-.185-.315-.1-.56-.155-.54-.33.01-.09.135-.18.37-.275L6.19 4.695l1.865-.68c.04 0 .135.01.195.06.05.04.065.095.07.135-.005.03.005.12 0 .19" fill-rule="nonzero"/></svg>