<svg xmlns="http://www.w3.org/2000/svg" viewBox="0 0 12 12" fill-rule="evenodd" stroke-linejoin="round" stroke-miterlimit="2" xmlns:v="https://vecta.io/nano"><path d="M10.711 3.217c-.186-.608-.554-1.089-1.093-1.43-.681-.43-1.464-.583-2.141-.675-.936-.128-1.784-.146-2.591-.055-.757.085-1.327.221-1.848.44-1.02.429-1.631 1.124-1.818 2.065-.085.418-.148.84-.187 1.263-.082.91-.008 1.716.227 2.463.228.728.627 1.248 1.22 1.59.151.087.344.15.531.211l.262.092v1.471c0 .14.092.266.232.321s.303.026.413-.071l1.481-1.32c.065-.068.065-.068.131-.069l1.536-.053c.622-.031 1.343-.086 2.022-.346.621-.238 1.075-.615 1.347-1.122.284-.528.453-1.101.516-1.75.111-1.141.032-2.131-.241-3.026M8.133 7.559c-.149.223-.371.377-.633.477a.78.78 0 0 1-.575-.015C5.34 7.406 4.099 6.438 3.278 5.046c-.169-.287-.287-.599-.422-.902-.028-.063-.025-.135-.038-.203.012-.49.421-.765.835-.848a.47.47 0 0 1 .415.122 3.36 3.36 0 0 1 .775.983c.085.162.046.305-.098.426q-.045.038-.093.07c-.329.227-.377.398-.202.739.298.58.793.97 1.434 1.212a.41.41 0 0 0 .457-.093c.017-.017.037-.033.05-.052.253-.386.619-.348.957-.128l.658.445c.334.225.331.437.127.742m-1.9-3.999q-.128 0-.254.019c-.093.017-.188-.014-.249-.081s-.077-.158-.043-.239.113-.139.207-.15c.651-.1 1.315.095 1.782.523s.679 1.037.57 1.634c-.029.124-.16.206-.297.185s-.232-.137-.215-.263q.021-.114.021-.233c-.001-.77-.681-1.394-1.521-1.395m1.131 1.548c0 .131-.116.238-.26.238s-.26-.107-.26-.238c0-.394-.35-.714-.779-.714-.143 0-.26-.107-.26-.238s.116-.238.26-.238c.717.001 1.297.533 1.298 1.19m1.748.29a.24.24 0 0 1-.115.149.28.28 0 0 1-.196.031.26.26 0 0 1-.162-.105.22.22 0 0 1-.033-.18c.174-.704-.058-1.44-.615-1.95s-1.36-.723-2.128-.564c-.14.029-.279-.051-.31-.18s.056-.256.196-.285c.942-.195 1.927.066 2.609.692s.968 1.529.755 2.392" fill-rule="nonzero"/></svg>