<svg xmlns="http://www.w3.org/2000/svg" viewBox="0 0 12 12" fill-rule="evenodd" stroke-linejoin="round" stroke-miterlimit="2" xmlns:v="https://vecta.io/nano"><path d="M6.02 1C3.29 1 1.065 3.225 1.065 5.955a4.97 4.97 0 0 0 .66 2.475l-.7 2.57 2.625-.69c.725.395 1.54.605 2.37.605 2.73 0 4.955-2.225 4.955-4.955 0-1.325-.515-2.57-1.45-3.505A4.91 4.91 0 0 0 6.02 1m.005.835c1.1 0 2.13.43 2.91 1.21.773.773 1.206 1.822 1.205 2.915 0 2.27-1.85 4.115-4.12 4.115A4.05 4.05 0 0 1 3.925 9.5l-.15-.085-1.56.41.415-1.52-.1-.16a4.1 4.1 0 0 1-.63-2.19c.005-2.27 1.85-4.12 4.125-4.12m-1.76 1.83c-.08 0-.215.03-.33.155-.11.125-.435.43-.435 1.035 0 .61.445 1.195.5 1.28.07.085.88 1.335 2.125 1.865a5.4 5.4 0 0 0 .705.265c.295.095.565.08.78.05.24-.035.73-.3.835-.59s.105-.535.075-.59-.115-.08-.24-.135c-.125-.07-.735-.37-.845-.41-.115-.04-.185-.06-.28.06-.08.125-.32.405-.39.485-.075.085-.145.095-.265.035-.13-.065-.53-.195-1-.615-.37-.33-.615-.735-.69-.86-.06-.12-.005-.195.055-.25a1.65 1.65 0 0 0 .185-.22c.065-.07.085-.125.125-.205s.02-.155-.01-.215-.28-.675-.385-.92-.2-.21-.28-.215c-.07 0-.15-.005-.235-.005" fill-rule="nonzero"/></svg>