<svg xmlns="http://www.w3.org/2000/svg" viewBox="0 0 12 12" fill-rule="evenodd" stroke-linejoin="round" stroke-miterlimit="2" xmlns:v="https://vecta.io/nano"><path d="M3.585 1c-.22.14-.423.295-.6.467-1.665 1.602-1.79 5.08-.379 6.967l.003.006c.218.322.007.883-.321 1.209-.053.052-.032.082.045.09.467.051 1.049-.082 1.462-.284 2.017 1.115 5.31.92 6.875-.589l.047-.045A4 4 0 0 0 11 8.499v1.184C11 10.407 10.407 11 9.683 11H2.317A1.32 1.32 0 0 1 1 9.683V2.317C1 1.593 1.593 1 2.317 1zM2.94 4.806h1.376l-1.359 1.65a.37.37 0 0 0-.073.245v.105h1.87c.094 0 .17-.075.17-.167v-.222H3.48l1.275-1.57.071-.082.01-.01a.5.5 0 0 0 .088-.307v-.06H2.94zm4.363 1.86a.14.14 0 0 0 .142.14h.283V4.36h-.425zM6 6.425a.56.56 0 0 1-.567-.555c0-.307.254-.556.567-.556s.564.247.566.552v.007A.56.56 0 0 1 6 6.424m.566-1.318A.97.97 0 0 0 6 4.924a.954.954 0 0 0-.963.945c0 .521.431.944.963.944a.97.97 0 0 0 .566-.182v.008c0 .092.076.167.17.167h.227V4.977h-.397zM8.985 6.43a.57.57 0 0 1-.574-.562c0-.31.257-.563.574-.563s.573.252.573.563-.256.562-.573.562m0-1.518a.966.966 0 0 0-.975.956c0 .527.436.955.975.955a.966.966 0 0 0 .975-.955.966.966 0 0 0-.975-.956"/></svg>