<svg xmlns="http://www.w3.org/2000/svg" width="100%" height="100%" viewBox="0 0 2000 2000" fill-rule="evenodd" stroke-linejoin="round" stroke-miterlimit="2" xmlns:v="https://vecta.io/nano"><style><![CDATA[.B{fill:#1f4f81}.C{fill:#fee1a4}.D{fill:#88fa4d}.E{fill:#e8d2a0}.F{fill:#58afe1}]]></style><g fill-rule="nonzero"><path d="M1707.11 292.891c390.52 390.531 390.52 1023.689 0 1414.219-390.53 390.52-1023.692 390.52-1414.215 0-390.528-390.53-390.528-1023.688 0-1414.219 390.523-390.52 1023.685-390.52 1414.215 0z" fill="#b1eafe"/><use href="#B" fill="#fefefe"/><use href="#B" fill="#b1eafe"/><path d="M1487.56 1561.1h-418.21v-71.21c0-78.32 64.16-142.41 142.58-142.41h133.06c78.42 0 142.57 64.09 142.57 142.41v71.21" class="D"/><path d="M1487.59 1570.62h-418.26c-4.75 0-9.5-4.74-9.5-9.49v-71.23c0-84.28 67.72-151.95 152.09-151.95H1345c84.36 0 152.09 67.67 152.09 151.95v71.23c0 4.75-4.75 9.49-9.5 9.49m-408.75-18.99h399.24v-61.73c0-73.6-59.41-132.96-133.08-132.96h-133.08c-73.67 0-133.08 59.36-133.08 132.96v61.73" class="B"/><path d="M1107.57 1408.16c-11.84 14.22-20.12 30.81-23.68 48.59h47.35l-9.47 33.19 49.72 61.63h14.2l-43.8-80.6c-1.18-2.36-1.18-4.74-1.18-7.11l5.92-21.33h-34.33c-2.36 0-5.91-1.19-7.1-3.56-2.37-2.37-2.37-4.74-2.37-8.29l4.74-22.52" fill="#5fd835"/><path d="M1185.77 1551.62h-14.27l7.13 9.48h13.08l-5.94-9.48m-73.69-163.52c-19.01 18.96-32.09 42.65-39.22 68.72h10.7c3.57-17.77 11.88-34.36 23.77-48.58v-2.37c1.19-5.93 3.56-11.85 4.75-17.77" class="B"/><path d="M1449.73 1408.16l4.76 22.52c0 3.55 0 5.92-2.38 8.29-1.19 2.37-4.76 3.56-7.13 3.56h-34.5l5.95 21.33c0 2.37 0 4.75-1.19 7.11l-44.01 80.6h14.27l49.96-61.63-9.52-33.19h47.58c-3.57-17.78-11.89-34.37-23.79-48.59" fill="#5fd835"/><path d="M1385.41 1551.62h-14.26l-5.94 9.48h13.07l7.13-9.48m59.42-163.52c1.19 5.92 3.57 11.84 4.76 17.77v2.37c11.88 14.22 20.2 30.81 23.77 48.58h10.69c-7.13-26.07-20.2-49.76-39.22-68.72" class="B"/><path d="M1235.84 1309.87c-58.36 0-108.38 41.48-119.1 97.17l-4.76 26.07h47.63l-9.52 33.19 52.4 94.8v-218.05l33.35 4.74v-37.92" class="D"/><path d="M1202.64 1570.62c-3.56 0-7.12-2.37-8.31-4.74l-52.22-94.83c-1.18-2.37-1.18-4.74-1.18-7.11l5.93-21.34h-34.42c-2.37 0-5.93-1.19-7.12-3.56-2.37-2.37-2.37-4.74-2.37-8.3l4.75-24.89c11.86-61.65 65.27-105.51 128.17-105.51 4.75 0 9.49 4.75 9.49 9.49v37.93c0 2.37-1.18 5.93-3.56 7.12-2.37 2.37-4.74 2.37-7.12 2.37l-22.55-3.56v207.45c0 4.74-2.37 8.3-7.12 9.48h-2.37m-41.54-105.5l32.04 59.27v-181.37c0-2.37 1.19-5.93 3.57-7.11 2.37-2.37 4.74-2.37 7.12-2.37l22.54 3.55v-17.78c-48.65 4.75-90.19 41.49-99.68 90.1l-2.38 14.22h35.61c3.56 0 5.93 1.19 7.12 3.56 2.37 2.37 2.37 5.92 2.37 8.29l-8.31 29.64" class="B"/><path d="M1321.58 1309.87c58.12 0 107.94 41.48 118.61 97.17l4.75 26.07h-47.45l9.49 33.19-52.19 94.8v-218.05l-33.21 4.74v-37.92" class="D"/><path d="M1354.78 1570.62h-2.37c-4.75-1.18-7.12-4.74-7.12-9.48v-207.45l-22.55 3.56c-2.38 0-4.75 0-7.12-2.37-2.38-1.19-3.56-4.75-3.56-7.12v-37.93c0-4.74 4.74-9.49 9.49-9.49 62.9 0 116.3 43.86 128.17 105.51l4.75 24.89c0 3.56 0 5.93-2.38 8.3-1.18 2.37-4.74 3.56-7.12 3.56h-34.41l5.93 21.34c0 2.37 0 4.74-1.19 7.11l-52.21 94.83c-1.19 2.37-4.75 4.74-8.31 4.74m0-237.08c2.37 0 4.75 1.18 5.93 2.37 2.38 1.18 3.56 4.74 3.56 7.11v181.37l32.05-59.27-8.31-29.64c0-2.37 0-5.92 2.37-8.29 1.19-2.37 3.56-3.56 7.12-3.56h35.61l-2.38-14.22c-9.49-48.61-51.03-85.35-99.69-90.1v17.78l22.55-3.55h1.19" class="B"/><path d="M1202.74 1347.48h151.941v209.105H1202.74z" fill="#f5f5f5"/><path d="M1354.71 1566.11h-152c-4.75 0-9.5-4.75-9.5-9.5v-209.15c0-4.75 4.75-9.51 9.5-9.51h152c4.75 0 9.5 4.76 9.5 9.51v209.15c0 4.75-4.75 9.5-9.5 9.5m-142.5-19.01h133v-190.14h-133v190.14" class="B"/><path d="M1202.74 1257.22v166.21s9.5 75.99 75.97 75.99 75.97-75.99 75.97-75.99v-166.21h-151.94" class="C"/><path d="M1278.71 1508.95c-59.37 0-81.94-54.63-85.5-84.32v-167.44c0-4.75 4.75-9.5 9.5-9.5h152c4.75 0 9.5 4.75 9.5 9.5v167.44c-3.57 29.69-26.13 84.32-85.5 84.32m-66.5-86.69c1.19 7.12 11.88 67.68 66.5 67.68s65.31-60.56 66.5-67.68v-155.57h-133v155.57" class="B"/><path d="M1345.15 1288.31h-132.88v58.19c20.17 5.94 40.34 9.5 62.88 9.5h3.56c22.54 0 45.08-3.56 66.44-9.5v-58.19" class="E"/><path d="M1212.24 1288.31h-9.5v54.6c3.56 1.19 5.93 2.38 9.5 3.57v-58.17m142.44 0h-9.5v58.17c3.56-1.19 5.94-2.38 9.5-3.57v-54.6" class="B"/><path d="M1563.87 1149.48V822.91c-2.38-154.379-129.51-280.262-285.16-280.262S995.922 668.531 993.547 822.91v326.57c-22.578 10.69-38.024 34.44-38.024 60.57 0 38 30.891 68.87 68.917 68.87h19.01v92.63h3.56c52.28 0 93.87-41.57 96.25-92.63h389.72c38.02 0 68.91-30.87 68.91-68.87 0-26.13-15.44-49.88-38.02-60.57" fill="#a46c3c"/><use href="#C" class="B"/><path d="M1278.71 585.391c155.6 0 282.7 125.847 285.07 280.199v-42.75c-2.37-154.34-129.47-280.192-285.07-280.192S996.012 668.5 993.633 822.84v42.75c2.379-154.352 129.477-280.199 285.077-280.199" fill="#ce834c"/><use href="#C" class="B"/><path d="M1554.35 1010.5h-551.28v138.82c0 3.56-2.38 5.94-4.754 8.31-20.195 9.49-33.265 29.66-33.265 52.21 0 33.22 26.137 59.32 59.409 59.32h19.01c4.75 0 9.5 4.75 9.5 9.49v81.87c43.96-2.38 79.6-36.78 80.79-81.87 1.19-4.74 4.75-9.49 9.51-9.49h389.69c33.27 0 59.41-26.1 59.41-59.32 0-22.55-13.07-42.72-33.27-52.21-2.38-2.37-4.75-4.75-4.75-8.31V1010.5" fill="#906848"/><path d="M1563.87 1010.5h-9.5v138.96c0 3.56 2.37 5.94 4.75 8.31 20.2 9.5 33.27 29.69 33.27 52.26 0 33.26-26.14 59.38-59.41 59.38h-389.72c-4.76 0-8.32 4.75-9.51 9.5-1.19 45.13-36.83 79.57-80.79 81.95v-81.95c0-4.75-4.76-9.5-9.51-9.5h-19.01c-33.272 0-59.413-26.12-59.413-59.38 0-22.57 13.071-42.76 33.27-52.26 2.383-2.37 4.753-4.75 4.753-8.31V1010.5h-9.503v138.96c-22.578 10.69-38.024 34.44-38.024 60.57 0 38.01 30.891 68.88 68.917 68.88h19.01v92.64h3.56c52.28 0 93.87-41.57 96.25-92.64h389.72c38.02 0 68.91-30.87 68.91-68.88 0-26.13-15.44-49.88-38.02-60.57V1010.5" class="B"/><path d="M1040.77 870.41v217.21c0 130.56 103.39 238.56 234.12 240.94 133.11 2.37 241.25-104.45 241.25-237.38V870.41c-102.2-9.488-185.39-128.18-185.39-128.18s-92.7 75.961-289.98 128.18" class="C"/><path d="M1278.46 1337.95h-4.76c-133.11-2.37-242.46-113.93-242.46-250.4V870.371c0-3.562 2.38-7.121 7.13-8.312 192.55-51.028 285.25-125.797 286.44-126.989 2.38-1.179 4.75-2.371 7.13-2.371 2.38 1.192 4.76 2.371 7.13 4.75 0 1.192 80.82 115.11 178.28 123.422 4.76 1.188 8.32 4.75 8.32 9.5v220.739c0 66.45-26.14 128.17-72.5 174.45-46.35 47.47-108.15 72.39-174.71 72.39zm-228.2-460.462v210.062c0 125.79 101.03 230.23 224.63 231.41h3.57c60.61 0 118.85-23.73 161.64-66.46 42.79-42.72 66.56-99.68 66.56-161.39V878.672c-86.77-11.863-156.89-96.121-178.28-122.231-26.15 18.981-115.29 77.137-278.12 121.047z" class="B"/><path d="M1040.77 934.289c-31.87 0-56.665 26.199-56.665 57.16 0 32.161 24.795 57.171 56.665 57.171V934.289z" class="C"/><path d="M1040.83 1058.14c-36.67 0-66.252-29.66-66.252-66.441s29.582-66.437 66.252-66.437c4.74 0 9.47 4.75 9.47 9.488v113.9c0 5.94-4.73 9.49-9.47 9.49zm-9.46-112.71c-21.3 4.742-37.862 23.73-37.862 46.269 0 23.731 16.562 42.711 37.862 47.461v-93.73z" class="B"/><path d="M1516.15 934.289c32.15 0 57.16 26.199 57.16 57.16 0 32.161-25.01 57.171-57.16 57.171V934.289z" class="C"/><path d="M1516.14 1058.14c-4.76 0-9.52-3.55-9.52-9.49v-113.9c0-4.738 4.76-9.488 9.52-9.488 36.92 0 66.7 29.66 66.7 66.437s-29.78 66.441-66.7 66.441zm9.53-112.71v93.73c21.44-4.75 38.11-23.73 38.11-47.461 0-22.539-16.67-41.527-38.11-46.269zm-334.92 24.41c9.3 9.308 9.3 24.39 0 33.69s-24.38 9.3-33.69 0c-9.3-9.3-9.3-24.382 0-33.69 9.31-9.301 24.39-9.301 33.69 0zm209.1 0c9.31 9.308 9.31 24.39 0 33.69a23.82 23.82 0 0 1-33.68 0c-9.3-9.3-9.3-24.382 0-33.69 9.3-9.301 24.38-9.301 33.68 0zm-188.04-25.711c-4.73 0-9.47-2.367-9.47-7.117-2.37-11.864-14.22-21.352-28.43-21.352-13.04 0-26.07 9.488-28.44 21.352-1.18 4.75-5.92 8.308-10.66 7.117-4.74 0-8.29-5.93-8.29-10.68 3.55-20.16 24.88-36.769 47.39-36.769 22.5 0 43.83 16.609 47.38 36.769 0 4.75-3.55 9.492-8.29 10.68h-1.19zm209.56 0c-4.76 0-9.53-2.367-9.53-7.117-2.38-11.864-14.29-21.352-28.58-21.352-13.1 0-26.2 9.488-28.58 21.352-1.19 4.75-5.96 8.308-10.72 7.117-4.76 0-8.34-5.93-8.34-10.68 3.58-20.16 25.01-36.769 47.64-36.769s44.07 16.609 47.64 36.769c0 4.75-3.57 9.492-8.34 10.68h-1.19zm-142.91 292.031c27.39 0 51.21-19.06 55.97-45.26 1.19-5.95-3.57-11.91-9.52-11.91h-92.9c-5.95 0-10.72 5.96-9.53 11.91 4.77 26.2 28.59 45.26 55.98 45.26m24.03-118.85h-52.58c-4.78 0-9.56-3.56-9.56-9.5v-99.83c0-4.76 4.78-9.511 9.56-9.511s9.56 4.751 9.56 9.511v90.32h33.46v-19.01c0-4.76 4.78-9.51 9.56-9.51 4.79 0 9.57 4.75 9.57 9.51v28.52c0 5.94-4.78 9.5-9.57 9.5z" class="B"/><path d="M981.883 1559.51H493.898v-83.11c0-91.42 74.864-166.21 166.36-166.21h155.265c91.497 0 166.36 74.79 166.36 166.21v83.11" class="F"/><path d="M981.906 1570.62H493.871c-5.543 0-11.09-5.53-11.09-11.08v-83.13c0-98.37 79.028-177.34 177.465-177.34h155.285c98.442 0 177.469 78.97 177.469 177.34v83.13c0 5.55-5.547 11.08-11.094 11.08m-476.941-22.16h465.851v-72.05c0-85.9-69.324-155.18-155.285-155.18H660.246c-85.957 0-155.281 69.28-155.281 155.18v72.05" class="B"/><path d="M538.488 1381c-13.808 16.66-23.476 36.09-27.621 56.92h55.246l-11.05 38.87 58.007 72.18h16.575l-51.102-94.4c-1.383-2.77-1.383-5.55-1.383-8.32l6.906-24.99h-40.05c-2.762 0-6.907-1.39-8.289-4.17-2.762-2.77-2.762-5.55-2.762-9.71l5.523-26.38" fill="#4d9cce"/><path d="M629.734 1548.44h-16.64l8.32 11.07h15.25l-6.93-11.07m-85.976-190.85c-22.188 22.13-37.442 49.79-45.762 80.22h12.481c4.16-20.75 13.867-40.11 27.734-56.71v-2.76c1.387-6.92 4.16-13.83 5.547-20.75" class="B"/><path d="M937.738 1381l5.555 26.38c0 4.16 0 6.94-2.777 9.71-1.387 2.78-5.551 4.17-8.328 4.17h-40.25l6.941 24.99c0 2.77 0 5.55-1.391 8.32l-51.351 94.4h16.652l58.297-72.18-11.106-38.87h55.52c-4.164-20.83-13.879-40.26-27.762-56.92" fill="#4d9cce"/><path d="M862.688 1548.44h-16.641l-6.934 11.07h15.254l8.321-11.07m69.335-190.85c1.387 6.92 4.161 13.83 5.547 20.75v2.76c13.868 16.6 23.575 35.96 27.735 56.71h12.48c-8.32-30.43-23.574-58.09-45.762-80.22" class="B"/><path d="M688.156 1266.29c-68.093 0-126.457 48.41-138.965 113.41l-5.558 30.43h55.586l-11.117 38.73 61.144 110.65v-254.49l38.91 5.53v-44.26" class="F"/><path d="M649.246 1570.62c-4.168 0-8.34-2.76-9.726-5.53l-61.145-110.68c-1.391-2.77-1.391-5.54-1.391-8.3l6.95-24.91h-40.301c-2.778 0-6.949-1.38-8.336-4.15-2.781-2.77-2.781-5.53-2.781-9.69l5.558-29.05c13.899-71.95 76.43-123.14 150.082-123.14 5.559 0 11.117 5.54 11.117 11.07v44.28c0 2.76-1.39 6.91-4.168 8.3-2.781 2.76-5.558 2.76-8.339 2.76l-26.403-4.15v242.13c0 5.53-2.777 9.68-8.34 11.06h-2.777m-48.637-123.13l37.52 69.18v-211.69c0-2.77 1.391-6.92 4.168-8.3 2.781-2.77 5.558-2.77 8.34-2.77l26.402 4.15v-20.75c-56.976 5.53-105.613 48.42-116.73 105.15l-2.778 16.6h41.688c4.168 0 6.949 1.38 8.34 4.15 2.777 2.77 2.777 6.92 2.777 9.69l-9.727 34.59" class="B"/><path d="M787.625 1266.29c68.094 0 126.457 48.41 138.965 113.41l5.558 30.43h-55.585l11.117 38.73-61.145 110.65v-254.49l-38.91 5.53v-44.26" class="F"/><path d="M826.535 1570.62h-2.781c-5.559-1.38-8.336-5.53-8.336-11.06v-242.13l-26.402 4.15c-2.782 0-5.559 0-8.34-2.76-2.778-1.39-4.168-5.54-4.168-8.3v-44.28c0-5.53 5.558-11.07 11.117-11.07 73.652 0 136.184 51.19 150.082 123.14l5.559 29.05c0 4.16 0 6.92-2.782 9.69-1.386 2.77-5.558 4.15-8.336 4.15h-40.3l6.949 24.91c0 2.76 0 5.53-1.391 8.3l-61.144 110.68c-1.391 2.77-5.559 5.53-9.727 5.53m0-276.71c2.778 0 5.559 1.39 6.949 2.77 2.778 1.38 4.168 5.53 4.168 8.3v211.69l37.52-69.18-9.727-34.59c0-2.77 0-6.92 2.778-9.69 1.39-2.77 4.172-4.15 8.34-4.15h41.687l-2.777-16.6c-11.118-56.73-59.754-99.62-116.731-105.15v20.75l26.403-4.15h1.39" class="B"/><path d="M648.953 1310.19h177.875v244.051H648.953z" fill="#f5f5f5"/><path d="M826.828 1565.36H648.953c-5.558 0-11.117-5.55-11.117-11.1v-244.1c0-5.55 5.559-11.09 11.117-11.09h177.875c5.559 0 11.117 5.54 11.117 11.09v244.1c0 5.55-5.558 11.1-11.117 11.1m-166.758-22.19h155.641v-221.91H660.07v221.91" class="B"/><path d="M648.953 1204.84v111.2l88.938 88.37 88.937-88.37v-111.2H648.953z" class="C"/><path d="M737.891 1415.53c-2.782 0-5.559-1.38-8.34-2.76l-88.934-88.49c-1.39-2.77-2.781-5.53-2.781-8.3v-110.61c0-5.53 5.559-11.06 11.117-11.06h177.875c5.559 0 11.117 5.53 11.117 11.06v110.61c0 2.77-1.39 5.53-2.781 8.3l-88.937 88.49c-2.778 1.38-5.555 2.76-8.336 2.76m-77.821-103.7l77.821 77.43 77.82-77.43v-95.4H660.07v95.4" class="B"/><path d="M660.07 1303.75v5.46c23.625 6.83 47.246 10.93 73.653 10.93h5.558c26.403 0 52.805-4.1 76.43-10.93v-2.73c-23.625 6.83-47.246 9.56-72.262 9.56h-5.558c-26.403 0-52.805-4.1-77.821-12.29" class="E"/><path d="M826.828 1303.33c-4.168 1.42-6.949 2.84-11.117 2.84v2.85c4.168-1.43 6.949-2.85 11.117-4.27v-1.42m-177.875-4.26v5.68c4.168 1.42 6.949 2.84 11.117 4.27v-5.69c-4.168-1.42-6.949-2.84-11.117-4.26" class="B"/><path d="M787.625 1548.97h-99.469l19.309-94.22h60.851l19.309 94.22z" fill="#49c6c6"/><path d="M787.68 1559.51h-99.578c-2.766 0-6.914-1.39-8.297-4.14-2.766-2.76-2.766-5.52-2.766-9.66l19.363-93.81c1.383-4.14 5.532-8.28 11.063-8.28h60.851c5.532 0 9.68 4.14 11.063 8.28l19.363 93.81c0 4.14 0 6.9-2.765 9.66-1.383 2.75-5.532 4.14-8.297 4.14m-85.746-22.08h71.914l-15.211-71.74h-41.492l-15.211 71.74" class="B"/><path d="M737.891 1404.41l84.839 84.86-84.839-84.86z" fill="#cc8351"/><path d="M822.555 1500.39c-2.77 0-5.539-1.38-8.313-2.77l-84.484-84.68c-4.156-4.16-4.156-12.49 0-16.65 4.156-4.17 12.465-4.17 16.621 0l84.484 84.67c4.157 4.16 4.157 12.49 0 16.66-2.769 1.39-5.539 2.77-8.308 2.77z" class="B"/><path d="M737.891 1404.41l-84.258 84.86 84.258-84.86z" fill="#cc8351"/><path d="M653.227 1500.39c-2.77 0-5.539-1.38-8.309-2.77-4.156-4.17-4.156-12.5 0-16.66l84.484-84.67c4.157-4.17 12.465-4.17 16.621 0 4.157 4.16 4.157 12.49 0 16.65l-84.488 84.68c-2.769 1.39-5.539 2.77-8.308 2.77z" class="B"/><path d="M758.785 1465.86h-41.793l-8.355 36 13.929 13.85c4.18 4.16 9.75 6.93 15.325 6.93s11.144-2.77 15.324-6.93l13.93-13.85-8.36-36" fill="#41aeb8"/><path d="M737.891 1445.96c-5.547 0-11.094 2.79-15.258 6.95l-16.641 15.29c-4.164 4.18-5.551 9.74-5.551 15.3v1.39c0 5.55 1.387 11.11 5.551 15.29l2.774 1.39 8.32-36.14h41.609l8.321 36.14 2.773-1.39c4.16-4.18 5.551-9.74 5.551-15.29v-1.39c0-5.56-1.391-11.12-5.551-15.3l-16.641-15.29c-4.164-4.16-9.71-6.95-15.257-6.95" class="B"/><path d="M729.859 1490.38l-30.519-30.53c-4.164-4.16-4.164-11.1 0-16.65l30.519-30.53c4.161-4.16 12.485-4.16 16.649 0l30.519 30.53c4.161 5.55 4.161 12.49 0 16.65l-30.519 30.53c-4.164 4.16-12.488 4.16-16.649 0" fill="#49c6c6"/><path d="M737.891 1505.66c-5.52 0-11.043-2.77-15.184-6.93l-31.746-31.86c-4.141-4.16-6.902-9.69-6.902-15.24 0-5.54 2.761-11.08 6.902-15.24l31.746-31.86c8.281-8.31 22.086-8.31 30.367 0l31.746 31.86c4.141 4.16 6.903 9.7 6.903 15.24 0 5.55-2.762 11.08-6.903 15.24l-31.746 31.86c-4.14 4.16-9.664 6.93-15.183 6.93zm0-85.89l-31.746 31.86 31.746 31.87 31.746-31.87-31.746-31.86z" class="B"/><path d="M1131.67 526.391H1030.5c-29.1-51.262-83.148-85.903-145.512-85.903H646.621c-47.117 0-85.922 38.801-85.922 85.903h-38.804c-47.118 0-85.922 37.41-85.922 84.507v320.043h615.317V648.309c47.12-20.778 80.38-67.887 80.38-121.918" fill="#ce834c"/><path d="M1051.31 942.059H435.941c-5.543 0-11.086-4.161-11.086-11.09V610.891c0-52.653 42.965-95.61 97.016-95.61h27.723c5.543-48.492 47.121-85.91 97.015-85.91h238.387c62.371 0 119.194 33.258 151.074 85.91h95.63c5.54 0 11.09 4.16 11.09 11.09 0 54.039-31.88 103.918-80.39 128.859v275.739c0 6.929-5.54 11.09-11.09 11.09m-604.279-22.168h593.199V648.309c0-4.161 2.77-8.321 6.93-11.09 41.58-16.629 69.29-55.43 73.45-99.77h-90.09c-4.15 0-8.31-2.769-9.7-5.539-27.718-49.879-79-80.371-135.824-80.371H646.609c-41.578 0-74.839 33.262-74.839 74.832 0 5.539-5.543 11.078-11.09 11.078h-38.809c-41.574 0-74.84 33.262-74.84 73.442v309" class="B"/><path d="M635.469 452.781c-36.016 4.16-63.715 36.039-63.715 73.449 0 5.551-5.543 11.09-11.082 11.09h-38.785c-41.555 0-74.797 33.258-74.797 73.45v309.05h8.312V742.43c0-36.032 30.473-66.52 66.485-66.52h443.242c36.011 0 66.491 30.488 66.491 66.52v-36.032c0-37.418-29.09-66.519-66.491-66.519H690.871c-30.473 0-55.402-24.949-55.402-55.438v-131.66" fill="#8f684a"/><path d="M635.496 441.66c-41.566 4.16-74.82 40.199-74.82 84.551h-38.797c-47.109 0-85.906 37.43-85.906 84.551v320.179h19.398v-11.089h-8.312v-309.09c0-40.192 33.254-73.461 74.82-73.461h38.797c5.543 0 11.082-5.539 11.082-11.09 0-37.422 27.715-69.301 63.738-73.461v-11.09" class="B"/><path d="M466.398 742.328V1023.7c0 151.08 120.516 278.6 272.895 281.37 155.148 2.77 281.207-121.97 281.207-277.21V742.328c0-30.488-24.937-55.437-55.41-55.437H521.809c-30.477 0-55.411 24.949-55.411 55.437" class="C"/><path d="M743.449 1316.04h-5.543c-155.168-2.77-282.625-134.43-282.625-292.42V742.289c0-36.027 30.481-66.519 66.5-66.519h443.336c36.023 0 66.503 30.492 66.503 66.519v285.491c0 77.61-30.48 149.67-84.515 203.72s-126.074 84.54-203.656 84.54M521.781 697.941c-24.937 0-44.332 20.789-44.332 44.348v281.331c0 146.9 117.762 267.47 261.844 270.24 72.043 1.39 141.312-26.32 192.574-77.6 49.875-51.28 77.583-117.8 77.583-188.48V742.289c0-23.559-19.395-44.348-44.333-44.348H521.781" class="B"/><path d="M965.059 698.012H521.84c-24.934 0-44.324 20.789-44.324 44.347v8.321c9.695-13.86 26.316-22.18 44.324-22.18h443.219c18.007 0 34.629 8.32 44.321 22.18v-8.321c0-23.558-19.388-44.347-44.321-44.347" class="E"/><path d="M966.473 686.891H520.422c-29.09 1.379-54.024 24.98-54.024 55.507v41.641c0-12.488 4.157-23.59 11.082-33.309v-8.332c0-23.589 19.395-44.41 44.329-44.41H965.09c24.933 0 44.33 20.821 44.33 44.41v8.332c6.92 9.719 11.08 20.821 11.08 33.309v-41.641c0-30.527-24.937-54.128-54.027-55.507" class="B"/><path d="M466.398 857.43c-37.519 0-66.703 42.289-66.703 92.269 0 51.911 29.184 92.281 66.703 92.281V857.43z" class="C"/><path d="M466.398 1057.43c-43.078 0-77.82-48.09-77.82-107.731 0-59.629 34.742-107.719 77.82-107.719 5.559 0 11.118 7.692 11.118 15.391v184.669c0 9.62-5.559 15.39-11.118 15.39zm-11.117-182.75c-25.011 7.699-44.468 38.48-44.468 75.019 0 38.481 19.457 69.251 44.468 76.951V874.68z" class="B"/><path d="M1020.5 853.102c37.52 0 66.7 40.789 66.7 89 0 50.058-29.18 88.998-66.7 88.998V853.102z" class="C"/><path d="M1020.5 1059.09c-5.56 0-11.12-5.82-11.12-15.52V857.488c0-7.758 5.56-15.508 11.12-15.508 43.08 0 77.82 48.461 77.82 108.551s-34.74 108.559-77.82 108.559zm11.12-184.16v153.14c25.01-7.75 44.47-38.769 44.47-77.539 0-36.832-19.46-67.84-44.47-75.601zm-390.722 5.629c10.739 10.851 10.739 28.453 0 39.312a27.29 27.29 0 0 1-38.89 0c-10.738-10.859-10.738-28.461 0-39.312 10.738-10.86 28.152-10.86 38.89 0zm243.993 0c10.738 10.851 10.738 28.453 0 39.312a27.29 27.29 0 0 1-38.891 0c-10.738-10.859-10.738-28.461 0-39.312 10.738-10.86 28.148-10.86 38.891 0zm-218.969-30.02c-5.559 0-11.117-4.148-11.117-9.687-2.782-12.461-16.676-23.543-33.352-23.543-15.285 0-30.57 11.082-33.351 23.543-1.391 6.929-6.95 11.078-12.508 9.687-5.559-1.379-9.727-6.918-9.727-12.461 4.168-24.918 29.184-42.918 55.586-42.918s51.418 18 55.586 42.918c0 5.543-4.168 11.082-9.726 12.461h-1.391zm243.992 0c-5.559 0-11.117-4.148-11.117-9.687-2.781-12.461-16.676-23.543-33.352-23.543-15.285 0-30.574 11.082-33.351 23.543-1.391 6.929-6.949 11.078-12.508 9.687-5.559-1.379-9.727-6.918-9.727-12.461 4.168-24.918 29.18-42.918 55.586-42.918s51.414 18 55.586 42.918c0 5.543-4.172 11.082-9.726 12.461h-1.391zM743.449 1086.03c-30.41 0-55.293-24.99-55.293-55.53v-63.871c0-5.559 5.528-11.109 11.059-11.109s11.058 5.55 11.058 11.109v63.871c0 18.05 15.207 33.32 33.176 33.32s33.176-15.27 33.176-33.32c0-5.56 5.527-11.11 11.059-11.11s11.058 5.55 11.058 11.11c0 30.54-24.883 55.53-55.293 55.53zm0 124.66c31.821 0 59.492-23.63 65.028-54.21 1.382-6.95-4.153-12.51-11.071-12.51H689.492c-6.918 0-12.453 5.56-11.07 12.51 5.535 30.58 33.207 54.21 65.027 54.21" class="B"/></g><defs ><path id="B" d="M1121.62 878.379c67.17 67.172 67.17 176.071 0 243.241s-176.073 67.17-243.241 0-67.172-176.069 0-243.241 176.071-67.168 243.241 0z"/><path id="C" d="M1047 1381.08h-3.57c-5.94 0-9.5-4.75-9.5-9.5v-83.14h-9.51c-42.775 0-78.424-34.44-78.424-78.38 0-27.31 14.258-52.25 38.024-66.5V821.711c2.378-77.191 33.27-149.641 87.93-203.082 55.85-54.629 129.52-85.508 206.76-85.508 77.23 0 150.91 30.879 206.76 85.508 54.66 53.441 85.55 125.891 87.93 203.082v321.849c23.76 14.25 38.02 39.19 38.02 66.5 0 43.94-35.65 78.38-78.42 78.38h-380.25c-7.13 52.26-52.28 92.64-105.75 92.64m-43.97-555.799v324.209c0 3.57-2.37 5.94-4.749 8.32-20.203 9.5-33.273 29.69-33.273 52.25 0 33.26 26.14 59.38 59.412 59.38h19.01c4.76 0 9.51 4.75 9.51 9.5v81.95c43.97-2.38 79.61-36.82 80.8-81.95 1.19-4.75 4.75-9.5 9.51-9.5H1533c33.27 0 59.41-26.12 59.41-59.38 0-22.56-13.07-42.75-33.27-52.25-2.38-2.38-4.75-4.75-4.75-8.32V822.898c-2.38-148.449-125.96-270.769-275.68-270.769s-273.3 122.32-275.68 270.769v2.383"/></defs></svg>